<svg width="592" height="459" xmlns="http://www.w3.org/2000/svg" xmlns:xlink="http://www.w3.org/1999/xlink" xml:space="preserve" overflow="hidden"><defs><filter id="fx0" x="-10%" y="-10%" width="120%" height="120%" filterUnits="userSpaceOnUse" primitiveUnits="userSpaceOnUse"><feComponentTransfer color-interpolation-filters="sRGB"><feFuncR type="discrete" tableValues="0 0"/><feFuncG type="discrete" tableValues="0 0"/><feFuncB type="discrete" tableValues="0 0"/><feFuncA type="linear" slope="0" intercept="0"/></feComponentTransfer><feGaussianBlur stdDeviation="7.40741 7.40741"/></filter><clipPath id="clip1"><rect x="125" y="65" width="592" height="459"/></clipPath></defs><g clip-path="url(#clip1)" transform="translate(-125 -65)"><g filter="url(#fx0)" transform="matrix(6 0 0 6 257 63)"><g transform="translate(-7.10543e-15 0)"><g transform="matrix(1 0 0 1 2.5481e-06 3.12924e-07)"><g transform="matrix(1 0 0 1 2.5481e-06 3.12924e-07)"><g transform="matrix(1 0 0 1 2.5481e-06 3.12924e-07)"><path d="M34.7715 41.2584 42.772 41.2584C43.3245 41.2584 43.7724 41.7063 43.7724 42.2588 43.7724 42.8113 43.3245 43.2592 42.772 43.2592L36.7717 43.2592C36.5876 43.2592 36.4383 43.4084 36.4383 43.5925 36.4383 43.7766 36.5876 43.9258 36.7717 43.9258L42.772 43.9258C43.6927 43.9258 44.439 43.1795 44.439 42.2588 44.439 41.3381 43.6927 40.5917 42.772 40.5917L34.7715 40.5917C34.1704 40.5966 33.5808 40.7573 33.0604 41.0582L23.6266 45.5927C23.4607 45.6724 23.3908 45.8716 23.4706 46.0375 23.5503 46.2034 23.7494 46.2733 23.9154 46.1936L33.3701 41.648C33.7948 41.3971 34.2782 41.2627 34.7715 41.2584Z" fill="#309CE7"/><path d="M51.7723 37.891C51.4658 37.8846 51.1644 37.9696 50.9064 38.1351L45.2062 41.4027C45.0465 41.4943 44.9913 41.6981 45.0829 41.8578 45.1745 42.0175 45.3782 42.0728 45.5379 41.9812L51.2572 38.7017C51.4103 38.6026 51.59 38.5524 51.7723 38.5577 52.3245 38.5583 52.7719 39.0058 52.7725 39.558 52.7592 39.8536 52.6332 40.133 52.4204 40.3386L43.2783 47.0222C43.1035 47.154 42.8908 47.2258 42.6719 47.2269L36.4383 47.2269C33.0286 47.2269 30.2577 48.2694 28.2022 50.3254 28.07 50.4536 28.0668 50.6646 28.195 50.7967 28.3232 50.9289 28.5342 50.9321 28.6663 50.8039 28.6688 50.8016 28.6711 50.7992 28.6735 50.7968 30.5995 48.8703 33.2119 47.8936 36.4383 47.8936L42.6719 47.8936C43.0309 47.8921 43.3802 47.7761 43.6688 47.5625L52.8358 40.8607 52.8747 40.8274C53.2243 40.4963 53.4274 40.0394 53.4391 39.558 53.4381 38.6379 52.6925 37.8921 51.7723 37.891Z" fill="#309CE7"/><path d="M40.6022 38.5503C42.7443 38.5503 45.021 37.957 45.021 36.8573L45.021 35.5746C45.021 35.3066 44.8716 34.9237 44.2192 34.5736L44.2192 33.4902C44.2192 32.6834 42.9924 32.1502 41.4935 31.923L41.4935 31.0852C41.4935 30.8173 41.3441 30.4343 40.6919 30.0842L40.6919 29.0008C40.6919 27.9012 38.4152 27.3078 36.2731 27.3078 34.131 27.3078 31.8543 27.901 31.8543 29.0007L31.8543 30.2834C31.8543 30.6867 32.1625 31.0212 32.6561 31.284L32.6561 32.3289C32.0037 32.6789 31.8543 33.0619 31.8543 33.3298L31.8543 34.6125C31.8543 35.6968 34.0679 36.2877 36.1834 36.304L36.1834 36.8573C36.1834 37.9569 38.4601 38.5503 40.6022 38.5503ZM36.3773 35.3119C36.0566 35.1327 35.8818 34.9416 35.8818 34.7728L35.8818 34.3008C36.0369 34.4119 36.2029 34.507 36.3773 34.5844ZM37.179 37.3964C36.8583 37.2172 36.6834 37.0261 36.6834 36.8573L36.6834 36.3852C36.8385 36.4964 37.0046 36.5915 37.179 36.6689ZM36.7939 35.5041 36.7939 34.751C37.0146 34.8252 37.239 34.8878 37.4661 34.9386L37.4661 35.7126C37.2378 35.6576 37.0133 35.5879 36.7939 35.5041ZM38.3737 37.8212C38.1092 37.7623 37.8492 37.6845 37.5957 37.5886L37.5957 36.8352C37.8507 36.9201 38.1105 36.9899 38.3737 37.0444ZM39.7204 38.018C39.3849 37.993 39.0759 37.9531 38.7904 37.9038L38.7904 37.1226C39.0912 37.172 39.4031 37.2093 39.7204 37.2333ZM41.0672 38.0414C40.9161 38.0471 40.7614 38.0504 40.6021 38.0504 40.4428 38.0504 40.2881 38.0471 40.137 38.0414L40.137 37.2575C40.2922 37.2636 40.4474 37.2675 40.6021 37.2675 40.7567 37.2675 40.9121 37.2635 41.0672 37.2575ZM42.4139 37.9039C42.1282 37.9532 41.8194 37.9931 41.4839 38.0181L41.4839 37.2333C41.8012 37.2094 42.1131 37.172 42.4139 37.1226ZM43.6006 37.5918C43.3496 37.6863 43.0923 37.763 42.8306 37.8213L42.8306 37.0446C43.091 36.9906 43.3481 36.9216 43.6006 36.838ZM44.521 36.8573C44.521 37.0275 44.3432 37.2203 44.0173 37.4009L44.0173 36.6727C44.1946 36.5945 44.3634 36.4981 44.521 36.3852ZM44.141 35.1022C44.3856 35.2593 44.521 35.425 44.521 35.5746 44.521 36.0728 43.0301 36.7676 40.6022 36.7676 39.4841 36.8079 38.37 36.6126 37.3322 36.1943 37.3165 36.1868 37.3176 36.184 37.3345 36.1881 38.1429 36.3766 38.9705 36.4699 39.8005 36.466 41.7168 36.4659 43.7357 35.9896 44.141 35.1022ZM37.9886 35.8193 37.9886 35.0381C38.2894 35.0875 38.6014 35.1248 38.9188 35.1489L38.9188 35.9336C38.5833 35.9085 38.2743 35.8686 37.9886 35.8193ZM39.3355 35.9568 39.3355 35.173C39.4906 35.1791 39.6458 35.1832 39.8005 35.1832 39.9551 35.1832 40.1105 35.1792 40.2656 35.173L40.2656 35.9568C40.1145 35.9625 39.9598 35.9659 39.8005 35.9659 39.6412 35.9659 39.4865 35.9625 39.3355 35.9568ZM40.6823 35.9335 40.6823 35.1488C40.9997 35.1248 41.3116 35.0874 41.6125 35.038L41.6125 35.8192C41.3267 35.8686 41.0178 35.9085 40.6823 35.9335ZM42.0291 35.7366 42.0291 34.9599C42.2896 34.906 42.5467 34.8369 42.7991 34.7533L42.7991 35.507C42.5482 35.6016 42.2909 35.6783 42.0291 35.7367ZM43.2158 35.3163 43.2158 34.5881C43.3931 34.5099 43.5619 34.4136 43.7194 34.3007L43.7194 34.7728C43.7192 34.943 43.5415 35.1358 43.2157 35.3164ZM43.7194 33.4901C43.7194 33.9883 42.2285 34.6831 39.8006 34.6831 37.3727 34.6831 35.8818 33.9883 35.8818 33.4901 35.8818 32.9919 37.3726 32.2971 39.8005 32.2971 42.2284 32.2971 43.7192 32.9919 43.7192 33.4901ZM40.6137 30.6129C40.8581 30.77 40.9935 30.9356 40.9935 31.0852 40.9935 31.3121 40.6766 31.5785 40.1091 31.8024 40.0061 31.7997 39.9031 31.7971 39.8005 31.7971 38.7434 31.7817 37.6912 31.9414 36.6863 32.2696 35.6982 32.2713 34.7194 32.0794 33.805 31.7048 33.7892 31.6973 33.7903 31.6945 33.8073 31.6987 34.6156 31.8871 35.4432 31.9803 36.2731 31.9764 38.1894 31.9764 40.2082 31.5002 40.6137 30.6129ZM34.8462 32.5551 34.8462 33.3316C34.5817 33.2727 34.3217 33.1949 34.0682 33.0989L34.0682 32.3459C34.3232 32.4307 34.583 32.5006 34.8462 32.5551ZM33.2666 31.0147 33.2666 30.2615C33.5216 30.3463 33.7814 30.4161 34.0446 30.4706L34.0446 31.2473C33.7801 31.1884 33.5201 31.1106 33.2666 31.0147ZM33.6515 32.1794 33.6515 32.9068C33.3309 32.7275 33.1561 32.5365 33.1561 32.3677L33.1561 31.8958C33.3111 32.007 33.4772 32.102 33.6515 32.1794ZM34.4613 31.3299 34.4613 30.5487C34.762 30.5981 35.0739 30.6354 35.3913 30.6595L35.3913 31.4441C35.0558 31.4191 34.747 31.3792 34.4613 31.3299ZM35.8079 31.4674 35.8079 30.6836C35.9631 30.6897 36.1184 30.6936 36.2731 30.6936 36.4278 30.6936 36.5831 30.6896 36.7381 30.6836L36.7381 31.4674C36.5871 31.4731 36.4324 31.4764 36.2731 31.4764 36.1138 31.4764 35.959 31.4731 35.8079 31.4674ZM37.1548 31.444 37.1548 30.6594C37.4722 30.6354 37.7841 30.598 38.0848 30.5486L38.0848 31.3298C37.7992 31.3792 37.4903 31.4191 37.1548 31.4441ZM38.5015 31.2472 38.5015 30.4705C38.7619 30.4165 39.019 30.3475 39.2715 30.2639L39.2715 31.0177C39.0206 31.1122 38.7633 31.1889 38.5016 31.2473ZM39.6881 30.8269 39.6881 30.0988C39.8655 30.0206 40.0343 29.9243 40.1919 29.8113L40.1919 30.2834C40.1919 30.4536 40.0141 30.6465 39.6882 30.827ZM36.2731 27.8077C38.701 27.8077 40.1919 28.5025 40.1919 29.0007 40.1919 29.4989 38.701 30.1937 36.2731 30.1937 33.8452 30.1937 32.3543 29.4989 32.3543 29.0007 32.3543 28.5025 33.8452 27.8077 36.2731 27.8077ZM32.3543 30.2834 32.3543 29.8113C32.5094 29.9225 32.6755 30.0176 32.8499 30.095L32.8499 30.8225C32.5292 30.6433 32.3543 30.4522 32.3543 30.2834ZM32.801 32.818C33.1628 33.3744 34.1859 33.7496 35.3818 33.9319L35.3818 34.4867C33.4883 34.343 32.3543 33.7633 32.3543 33.3298 32.3543 33.1677 32.5158 32.9867 32.801 32.818ZM32.8499 35.1516C32.5292 34.9724 32.3543 34.7813 32.3543 34.6125L32.3543 34.1404C32.5094 34.2516 32.6755 34.3467 32.8499 34.4241ZM34.0446 35.5764C33.7801 35.5175 33.5201 35.4397 33.2666 35.3438L33.2666 34.5904C33.5216 34.6752 33.7814 34.7451 34.0446 34.7996ZM35.3913 35.7732C35.0558 35.7482 34.747 35.7083 34.4613 35.659L34.4613 34.8777C34.762 34.9271 35.0739 34.9643 35.3913 34.9884ZM35.3893 33.4332C35.3476 33.4266 35.3034 33.4213 35.2629 33.4143L35.2629 32.6333C35.4518 32.6643 35.6464 32.688 35.8429 32.7084 35.5938 32.8729 35.4284 33.1373 35.3893 33.4331ZM35.8079 35.7966 35.8079 35.5287C35.9251 35.622 36.0508 35.7039 36.1834 35.7734L36.1834 35.8038C36.0562 35.8028 35.9299 35.801 35.8079 35.7965Z" fill="#309CE7"/></g></g></g></g></g><g><g><g><path d="M162.001 259.102 186.003 259.102C187.66 259.102 189.004 260.446 189.004 262.103 189.004 263.761 187.66 265.104 186.003 265.104L168.002 265.104C167.45 265.104 167.002 265.552 167.002 266.104 167.002 266.657 167.45 267.104 168.002 267.104L186.003 267.104C188.765 267.104 191.004 264.865 191.004 262.103 191.004 259.341 188.765 257.102 186.003 257.102L162.001 257.102C160.198 257.117 158.43 257.599 156.868 258.501L128.567 272.105C128.069 272.344 127.859 272.942 128.099 273.44 128.338 273.937 128.935 274.147 129.433 273.908L157.797 260.271C159.072 259.518 160.522 259.115 162.001 259.102Z" fill="#309CE7"/><path d="M213.004 249C212.085 248.981 211.18 249.236 210.406 249.732L193.306 259.535C192.827 259.81 192.661 260.421 192.936 260.9 193.21 261.38 193.822 261.545 194.301 261.271L211.458 251.432C211.918 251.135 212.457 250.984 213.004 251 214.66 251.002 216.003 252.344 216.004 254.001 215.965 254.888 215.587 255.726 214.948 256.343L187.522 276.394C186.997 276.789 186.359 277.004 185.703 277.008L167.002 277.008C156.773 277.008 148.46 280.135 142.294 286.303 141.897 286.688 141.887 287.321 142.272 287.717 142.656 288.114 143.29 288.123 143.686 287.739 143.693 287.732 143.7 287.725 143.708 287.717 149.485 281.938 157.323 279.008 167.002 279.008L185.703 279.008C186.78 279.003 187.827 278.655 188.693 278.015L216.194 257.909 216.311 257.809C217.36 256.816 217.969 255.445 218.004 254.001 218.001 251.241 215.764 249.003 213.004 249Z" fill="#309CE7"/><path d="M179.494 250.978C185.92 250.978 192.75 249.198 192.75 245.899L192.75 242.051C192.75 241.247 192.302 240.098 190.345 239.048L190.345 235.798C190.345 233.377 186.664 231.778 182.167 231.096L182.167 228.583C182.167 227.779 181.719 226.63 179.763 225.579L179.763 222.329C179.763 219.031 172.933 217.25 166.506 217.25 160.08 217.25 153.25 219.03 153.25 222.329L153.25 226.177C153.25 227.387 154.175 228.391 155.655 229.179L155.655 232.314C153.698 233.364 153.25 234.513 153.25 235.316L153.25 239.165C153.25 242.417 159.891 244.19 166.237 244.239L166.237 245.899C166.237 249.198 173.067 250.978 179.494 250.978ZM166.819 241.263C165.857 240.725 165.333 240.152 165.333 239.646L165.333 238.229C165.798 238.563 166.296 238.848 166.819 239.08ZM169.224 247.516C168.262 246.979 167.737 246.405 167.737 245.899L167.737 244.483C168.203 244.816 168.701 245.101 169.224 245.334ZM168.069 241.839 168.069 239.58C168.731 239.803 169.404 239.99 170.085 240.143L170.085 242.465C169.4 242.3 168.727 242.091 168.069 241.839ZM172.808 248.791C172.014 248.614 171.234 248.381 170.474 248.093L170.474 245.833C171.239 246.087 172.018 246.297 172.808 246.46ZM176.848 249.381C175.842 249.306 174.915 249.186 174.058 249.038L174.058 246.695C174.961 246.843 175.896 246.955 176.848 247.027ZM180.889 249.451C180.435 249.468 179.971 249.478 179.493 249.478 179.015 249.478 178.551 249.468 178.098 249.451L178.098 247.099C178.564 247.118 179.029 247.129 179.493 247.129 179.957 247.129 180.423 247.117 180.889 247.099ZM184.929 249.039C184.072 249.187 183.145 249.306 182.139 249.381L182.139 247.027C183.091 246.955 184.026 246.843 184.929 246.695ZM188.489 248.102C187.736 248.386 186.964 248.616 186.179 248.791L186.179 246.461C186.96 246.299 187.731 246.092 188.489 245.841ZM191.25 245.899C191.25 246.41 190.717 246.988 189.739 247.53L189.739 245.345C190.271 245.11 190.777 244.821 191.25 244.483ZM190.11 240.634C190.844 241.105 191.25 241.602 191.25 242.051 191.25 243.545 186.777 245.63 179.494 245.63 176.139 245.751 172.797 245.165 169.684 243.91 169.636 243.887 169.64 243.879 169.691 243.891 172.116 244.457 174.598 244.737 177.088 244.725 182.837 244.725 188.894 243.296 190.11 240.634ZM171.653 242.785 171.653 240.441C172.555 240.59 173.491 240.701 174.443 240.774L174.443 243.128C173.437 243.053 172.51 242.933 171.653 242.785ZM175.693 243.197 175.693 240.846C176.159 240.864 176.624 240.876 177.088 240.876 177.552 240.876 178.018 240.865 178.484 240.846L178.484 243.197C178.031 243.215 177.566 243.225 177.088 243.225 176.611 243.225 176.146 243.215 175.693 243.197ZM179.734 243.127 179.734 240.773C180.686 240.702 181.622 240.589 182.524 240.441L182.524 242.785C181.667 242.933 180.741 243.053 179.734 243.128ZM183.774 242.537 183.774 240.207C184.556 240.045 185.327 239.838 186.084 239.587L186.084 241.848C185.332 242.132 184.56 242.362 183.774 242.537ZM187.334 241.276 187.334 239.091C187.866 238.857 188.373 238.568 188.845 238.229L188.845 239.646C188.845 240.156 188.311 240.734 187.334 241.276ZM188.845 235.797C188.845 237.292 184.372 239.376 177.089 239.376 169.805 239.376 165.333 237.292 165.333 235.797 165.333 234.303 169.805 232.218 177.088 232.218 184.372 232.218 188.845 234.303 188.845 235.797ZM179.528 227.166C180.261 227.637 180.667 228.134 180.667 228.583 180.667 229.263 179.717 230.062 178.014 230.734 177.705 230.726 177.396 230.718 177.088 230.718 173.917 230.672 170.76 231.151 167.746 232.136 164.782 232.141 161.845 231.565 159.102 230.441 159.055 230.419 159.058 230.41 159.109 230.423 161.534 230.988 164.016 231.268 166.506 231.256 172.255 231.256 178.312 229.828 179.528 227.166ZM162.226 232.992 162.226 235.322C161.432 235.145 160.652 234.912 159.892 234.624L159.892 232.365C160.657 232.619 161.436 232.829 162.226 232.992ZM157.487 228.371 157.487 226.111C158.252 226.366 159.031 226.575 159.821 226.739L159.821 229.069C159.027 228.892 158.247 228.659 157.487 228.371ZM158.642 231.865 158.642 234.047C157.68 233.51 157.155 232.936 157.155 232.43L157.155 231.014C157.62 231.348 158.118 231.633 158.642 231.865ZM161.071 229.317 161.071 226.973C161.973 227.121 162.909 227.233 163.861 227.305L163.861 229.659C162.854 229.584 161.928 229.465 161.071 229.317ZM165.111 229.729 165.111 227.378C165.576 227.396 166.042 227.408 166.506 227.408 166.97 227.408 167.436 227.396 167.901 227.378L167.901 229.729C167.448 229.746 166.984 229.756 166.506 229.756 166.029 229.756 165.564 229.746 165.111 229.729ZM169.151 229.659 169.151 227.305C170.104 227.233 171.039 227.121 171.941 226.973L171.941 229.316C171.085 229.465 170.158 229.584 169.151 229.659ZM173.191 229.069 173.191 226.739C173.973 226.577 174.744 226.37 175.501 226.119L175.501 228.38C174.749 228.664 173.977 228.894 173.192 229.069ZM176.751 227.808 176.751 225.623C177.284 225.389 177.79 225.1 178.263 224.761L178.263 226.177C178.263 226.688 177.729 227.266 176.751 227.808ZM166.506 218.75C173.79 218.75 178.263 220.835 178.263 222.329 178.263 223.824 173.79 225.908 166.506 225.908 159.223 225.908 154.75 223.824 154.75 222.329 154.75 220.835 159.223 218.75 166.506 218.75ZM154.75 226.177 154.75 224.761C155.215 225.095 155.714 225.38 156.237 225.612L156.237 227.795C155.275 227.257 154.75 226.684 154.75 226.177ZM156.09 233.781C157.175 235.45 160.245 236.576 163.833 237.123L163.833 238.787C158.152 238.356 154.75 236.617 154.75 235.316 154.75 234.83 155.234 234.287 156.09 233.781ZM156.237 240.782C155.275 240.244 154.75 239.671 154.75 239.165L154.75 237.748C155.215 238.082 155.714 238.367 156.237 238.599ZM159.821 242.056C159.027 241.88 158.247 241.646 157.487 241.358L157.487 239.098C158.252 239.353 159.031 239.562 159.821 239.726ZM163.861 242.647C162.854 242.572 161.928 242.452 161.071 242.304L161.071 239.96C161.973 240.108 162.909 240.22 163.861 240.292ZM163.855 235.627C163.73 235.607 163.597 235.591 163.476 235.57L163.476 233.227C164.042 233.32 164.626 233.391 165.216 233.452 164.469 233.946 163.972 234.739 163.855 235.626ZM165.111 242.717 165.111 241.913C165.462 242.193 165.839 242.439 166.237 242.647L166.237 242.738C165.856 242.735 165.477 242.73 165.111 242.716Z" fill="#309CE7"/></g></g></g></g></svg>